<svg width="166" height="126" viewBox="0 0 166 126" fill="none" xmlns="http://www.w3.org/2000/svg">
<g filter="url(#filter0_i_13_93)">
<path d="M166 105.926C166 138.853 115.889 121.355 83.1588 121.355C50.4291 121.355 0 138.853 0 105.926C0 72.9996 50.4291 0 83.1588 0C115.889 0 166 72.9996 166 105.926Z" fill="url(#paint0_linear_13_93)"/>
<path d="M97.86 48.2067C86.5482 48.2067 62.0807 45.2656 62.0807 45.2656C62.0807 45.2656 57.1884 50.6472 54.3604 53.4752C49.0919 58.7437 49.5501 65.412 48.8516 73.729C49.7197 96.8447 64.5184 115.263 82.705 115.263C100.787 115.263 115.526 97.0511 116.542 74.1136C115.546 63.8481 108.635 48.2067 97.86 48.2067Z" fill="#F7DECE"/>
<path d="M82.7065 103.948C76.0693 103.948 72.5965 100.668 72.2232 100.291C71.6892 99.765 71.3862 99.0479 71.3809 98.298C71.3756 97.5481 71.6684 96.8268 72.195 96.2928C72.7215 95.7587 73.4386 95.4558 74.1885 95.4505C74.9384 95.4451 75.6597 95.738 76.1937 96.2645C76.3379 96.3974 78.473 98.2921 82.7065 98.2921C87.0021 98.2921 89.1344 96.3408 89.2249 96.2588C89.768 95.7501 90.4885 95.4738 91.2325 95.4892C91.9765 95.5045 92.685 95.8101 93.2067 96.3408C93.7241 96.8692 94.0124 97.5801 94.0092 98.3196C94.0061 99.0591 93.7116 99.7676 93.1897 100.291C92.8164 100.668 89.3437 103.948 82.7065 103.948ZM85.5344 89.8083H79.8785C79.1285 89.8083 78.4092 89.5103 77.8788 88.98C77.3485 88.4496 77.0506 87.7303 77.0506 86.9803C77.0506 86.2303 77.3485 85.511 77.8788 84.9806C78.4092 84.4503 79.1285 84.1523 79.8785 84.1523H85.5344C86.2844 84.1523 87.0037 84.4503 87.5341 84.9806C88.0644 85.511 88.3624 86.2303 88.3624 86.9803C88.3624 87.7303 88.0644 88.4496 87.5341 88.98C87.0037 89.5103 86.2844 89.8083 85.5344 89.8083Z" fill="#C1694F"/>
<path d="M68.5662 78.4954C67.8162 78.4954 67.0969 78.1975 66.5666 77.6671C66.0362 77.1368 65.7383 76.4175 65.7383 75.6675V70.0115C65.7383 69.2615 66.0362 68.5422 66.5666 68.0119C67.0969 67.4815 67.8162 67.1836 68.5662 67.1836C69.3163 67.1836 70.0356 67.4815 70.5659 68.0119C71.0962 68.5422 71.3942 69.2615 71.3942 70.0115V75.6675C71.3942 76.4175 71.0962 77.1368 70.5659 77.6671C70.0356 78.1975 69.3163 78.4954 68.5662 78.4954ZM96.8458 78.4954C96.0958 78.4954 95.3765 78.1975 94.8461 77.6671C94.3158 77.1368 94.0178 76.4175 94.0178 75.6675V70.0115C94.0178 69.2615 94.3158 68.5422 94.8461 68.0119C95.3765 67.4815 96.0958 67.1836 96.8458 67.1836C97.5958 67.1836 98.3151 67.4815 98.8455 68.0119C99.3758 68.5422 99.6737 69.2615 99.6737 70.0115V75.6675C99.6737 76.4175 99.3758 77.1368 98.8455 77.6671C98.3151 78.1975 97.5958 78.4954 96.8458 78.4954Z" fill="#662113"/>
<path d="M82.6995 25C105.903 25 120.399 42.1204 120.399 56.3875C120.399 70.6517 117.497 76.3642 114.599 70.6517C111.697 64.9477 108.799 56.4129 108.799 56.4129C108.799 56.4129 98.963 62.7843 91.2569 53.5312C91.2569 53.5312 94.3026 70.6517 76.8993 53.5312C76.8993 53.5312 79.8008 64.9477 62.4004 50.6807C62.4004 50.6807 53.6988 56.3875 50.8001 70.6517C49.997 74.6136 45 70.6517 45 56.3875C44.9972 42.1204 56.5974 25 82.6995 25Z" fill="#0EA89C"/>
<circle cx="98.8564" cy="89.624" r="1.07713" fill="#FF9494"/>
<circle cx="100.472" cy="92.3159" r="0.538564" fill="#FF9494"/>
<circle cx="98.3169" cy="95.5493" r="1.61569" fill="#FF9494"/>
<circle cx="103.165" cy="96.0849" r="1.07713" fill="#FF9494"/>
<circle cx="105.856" cy="92.3149" r="1.61569" fill="#FF9494"/>
</g>
<defs>
<filter id="filter0_i_13_93" x="0" y="0" width="166" height="130" filterUnits="userSpaceOnUse" color-interpolation-filters="sRGB">
<feFlood flood-opacity="0" result="BackgroundImageFix"/>
<feBlend mode="normal" in="SourceGraphic" in2="BackgroundImageFix" result="shape"/>
<feColorMatrix in="SourceAlpha" type="matrix" values="0 0 0 0 0 0 0 0 0 0 0 0 0 0 0 0 0 0 127 0" result="hardAlpha"/>
<feOffset dy="4"/>
<feGaussianBlur stdDeviation="2"/>
<feComposite in2="hardAlpha" operator="arithmetic" k2="-1" k3="1"/>
<feColorMatrix type="matrix" values="0 0 0 0 0 0 0 0 0 0 0 0 0 0 0 0 0 0 0.25 0"/>
<feBlend mode="normal" in2="shape" result="effect1_innerShadow_13_93"/>
</filter>
<linearGradient id="paint0_linear_13_93" x1="83.1588" y1="11.9894" x2="83.1588" y2="131.228" gradientUnits="userSpaceOnUse">
<stop stop-color="#AFC1DC"/>
<stop offset="1" stop-color="#E2E5ED"/>
</linearGradient>
</defs>
</svg>
