<svg width="166" height="126" viewBox="0 0 166 126" fill="none" xmlns="http://www.w3.org/2000/svg">
<g filter="url(#filter0_i_12_86)">
<path d="M166 105.926C166 138.853 115.889 121.355 83.1588 121.355C50.4291 121.355 0 138.853 0 105.926C0 72.9996 50.4291 0 83.1588 0C115.889 0 166 72.9996 166 105.926Z" fill="url(#paint0_linear_12_86)"/>
<path d="M88.2297 88.531C88.2297 87.7636 87.9204 87.039 87.208 86.556C86.7108 86.2188 86.2747 85.8439 85.9321 85.4238C85.7333 85.1823 85.5649 84.9332 85.4212 84.6817C85.2582 84.3898 85.1285 84.098 85.0264 83.8087C84.9104 83.4765 84.8275 83.1495 84.7667 82.83C84.6976 82.4651 84.6618 82.113 84.637 81.7682C84.6121 81.3782 84.6066 81.006 84.6066 80.6487C84.6066 80.3191 84.6038 79.9996 84.6038 79.7077V79.4963V78.0244V77.4407C84.6038 77.4407 84.6038 69.3394 84.6038 66.5165C84.6038 65.1806 84.1812 63.9452 82.8834 62.7627C79.9866 60.1234 75.5378 61.1449 75.2727 61.067L65.2042 63.2962C67.8111 66.5317 71.4562 69.118 75.8939 70.5974V74.0065C60.8713 77.8558 49.9634 89.7008 49.9634 106.417H64.2265H74.1158V104.467C74.1158 103.443 74.1737 102.507 74.2953 101.646C74.4141 100.784 74.5991 99.9935 74.8588 99.2689C75.0327 98.7858 75.2426 98.3305 75.4885 97.9028C75.817 97.3317 76.2203 96.8159 76.6897 96.363C76.9603 96.1039 78.9322 94.081 81.7875 94.081C86.3768 94.0813 88.2297 91.9327 88.2297 88.531Z" fill="#F7DECE"/>
<path d="M96.2541 73.6465V68.5996C100.493 66.1566 104.63 58.7599 104.63 49.856V44.0442C104.006 32.4056 93.142 23.4313 80.3674 24C68.0702 24.5484 58.4851 33.744 58.3498 44.8141L53.2631 51.1743C52.8489 51.6749 52.65 52.2235 52.9788 52.7996C53.3185 53.3859 54.0337 53.4941 54.6136 53.5746L58.8027 54.1557L59.1976 57.7786C59.1976 57.7786 75.4352 57.834 78.0558 57.834C89.0852 57.834 88.4695 60.5713 88.4695 66.5165C88.4695 69.3393 88.4695 76.9299 88.4695 76.9299V77.2746C88.4695 77.6017 88.464 77.9187 88.464 78.218C88.464 78.5853 88.4972 78.9301 88.4972 79.237C88.4972 79.886 89.1683 80.5779 89.2704 80.6911C89.3284 80.7541 89.3975 80.8145 89.4804 80.8798C89.5742 80.9504 89.6903 81.0207 89.8393 81.0937C90.0078 81.1792 90.2204 81.2623 90.4855 81.3402C90.7893 81.4283 91.1675 81.5062 91.6205 81.5666C91.974 81.6094 92.3771 81.6445 92.8327 81.6596C93.6529 81.6194 94.5504 81.6672 95.47 81.8609C101.556 83.1339 105.853 91.8391 99.7613 98.5943C93.6667 105.35 84.7857 103.007 81.1681 101.075C80.2928 100.609 78.7546 99.8647 78.4674 100.889C78.3487 101.312 78.2658 101.8 78.1995 102.348C78.1278 102.975 78.0862 103.679 78.089 104.467V106.416H106.748H123.717C123.717 89.137 112.061 77.0632 96.2541 73.6465Z" fill="#F7DECE"/>
<mask id="mask0_12_86" style="mask-type:alpha" maskUnits="userSpaceOnUse" x="49" y="23" width="75" height="84">
<path d="M88.2316 88.5309C88.2316 87.7635 87.9223 87.0389 87.2099 86.5558C86.7127 86.2187 86.2765 85.8438 85.934 85.4237C85.7352 85.1822 85.5668 84.9331 85.4231 84.6816C85.2601 84.3897 85.1304 84.0979 85.0283 83.8085C84.9123 83.4764 84.8294 83.1493 84.7686 82.8299C84.6995 82.465 84.6637 82.1129 84.6389 81.7681C84.614 81.3781 84.6085 81.0058 84.6085 80.6485C84.6085 80.3189 84.6057 79.9995 84.6057 79.7076V79.4961V78.0243V77.4406C84.6057 77.4406 84.6057 69.3392 84.6057 66.5164C84.6057 65.1804 84.1831 63.9451 82.8853 62.7626C79.9885 60.1233 75.5397 61.1448 75.2746 61.0669L65.2061 63.296C67.8129 66.5316 71.4581 69.1178 75.8958 70.5973V74.0064C60.8732 77.8557 49.9653 89.7007 49.9653 106.417H64.2284H74.1176V104.467C74.1176 103.443 74.1756 102.507 74.2972 101.646C74.416 100.783 74.601 99.9933 74.8606 99.2688C75.0346 98.7857 75.2445 98.3303 75.4904 97.9027C75.8189 97.3315 76.2222 96.8158 76.6916 96.3628C76.9622 96.1038 78.9341 94.0809 81.7894 94.0809C86.3787 94.0812 88.2316 91.9326 88.2316 88.5309Z" fill="white"/>
<path d="M96.256 73.6464V68.5995C100.495 66.1565 104.632 58.7598 104.632 49.8559V44.0441C104.008 32.4055 93.1438 23.4311 80.3692 23.9998C68.0721 24.5483 58.487 33.7439 58.3516 44.8139L53.265 51.1742C52.8507 51.6748 52.6519 52.2234 52.9806 52.7995C53.3203 53.3858 54.0355 53.494 54.6154 53.5745L58.8046 54.1556L59.1994 57.7785C59.1994 57.7785 75.437 57.8339 78.0577 57.8339C89.087 57.8339 88.4713 60.5712 88.4713 66.5164C88.4713 69.3392 88.4713 76.9298 88.4713 76.9298V77.2745C88.4713 77.6015 88.4658 77.9186 88.4658 78.2179C88.4658 78.5852 88.499 78.9299 88.499 79.2368C88.499 79.8859 89.1701 80.5778 89.2723 80.691C89.3302 80.754 89.3993 80.8143 89.4822 80.8797C89.5761 80.9502 89.6922 81.0206 89.8412 81.0935C90.0096 81.1791 90.2222 81.2621 90.4873 81.3401C90.7911 81.4281 91.1693 81.5061 91.6223 81.5665C91.9758 81.6093 92.3789 81.6444 92.8345 81.6595C93.6548 81.6193 94.5522 81.6671 95.4718 81.8608C101.558 83.1338 105.855 91.839 99.7631 98.5942C93.6686 105.349 84.7876 103.007 81.17 101.075C80.2946 100.609 78.7565 99.8646 78.4693 100.889C78.3505 101.311 78.2676 101.799 78.2013 102.348C78.1296 102.975 78.088 103.679 78.0909 104.466V106.416H106.75H123.719C123.719 89.1369 112.063 77.0631 96.256 73.6464Z" fill="#F7DECE"/>
</mask>
<g mask="url(#mask0_12_86)">
<rect x="49.9653" y="73.4868" width="73.7537" height="33.5974" fill="#0EA89C"/>
</g>
</g>
<defs>
<filter id="filter0_i_12_86" x="0" y="0" width="166" height="130" filterUnits="userSpaceOnUse" color-interpolation-filters="sRGB">
<feFlood flood-opacity="0" result="BackgroundImageFix"/>
<feBlend mode="normal" in="SourceGraphic" in2="BackgroundImageFix" result="shape"/>
<feColorMatrix in="SourceAlpha" type="matrix" values="0 0 0 0 0 0 0 0 0 0 0 0 0 0 0 0 0 0 127 0" result="hardAlpha"/>
<feOffset dy="4"/>
<feGaussianBlur stdDeviation="2"/>
<feComposite in2="hardAlpha" operator="arithmetic" k2="-1" k3="1"/>
<feColorMatrix type="matrix" values="0 0 0 0 0 0 0 0 0 0 0 0 0 0 0 0 0 0 0.25 0"/>
<feBlend mode="normal" in2="shape" result="effect1_innerShadow_12_86"/>
</filter>
<linearGradient id="paint0_linear_12_86" x1="83.1588" y1="11.9894" x2="83.1588" y2="131.228" gradientUnits="userSpaceOnUse">
<stop stop-color="#AFC1DC"/>
<stop offset="1" stop-color="#E2E5ED"/>
</linearGradient>
</defs>
</svg>
