<svg width="166" height="126" viewBox="0 0 166 126" fill="none" xmlns="http://www.w3.org/2000/svg">
<g filter="url(#filter0_i_13_107)">
<path d="M166 105.926C166 138.853 115.889 121.355 83.1588 121.355C50.4291 121.355 0 138.853 0 105.926C0 72.9996 50.4291 0 83.1588 0C115.889 0 166 72.9996 166 105.926Z" fill="url(#paint0_linear_13_107)"/>
<path d="M67.1305 49.1448L67.6693 49.0986C67.8733 49.0755 68.058 49.0024 68.212 48.8946L68.2081 48.8985C68.7239 50.6767 69.3551 52.5472 70.1441 54.5063C71.1564 57.0696 72.1532 59.1749 73.2694 61.2071L73.1154 60.8992C73.023 62.3002 72.9114 63.7396 72.7652 65.1329C72.6959 65.9912 72.5265 66.7918 72.2687 67.5461L72.2879 67.4769C72.2417 67.4961 72.1763 75.4824 72.1763 75.4824C72.1802 80.6899 75.7865 85.0507 80.6361 86.2092L80.713 86.2246C80.9324 85.6665 81.4636 85.2777 82.0871 85.2777H84.2963C84.916 85.2854 85.4471 85.6703 85.6665 86.213L85.6703 86.2246C90.6084 85.0622 94.2302 80.7015 94.2494 75.4901C94.2494 75.4901 94.1147 67.5346 94.0454 67.4807C93.8337 66.8072 93.6644 66.0143 93.5759 65.1983L93.572 65.1406C93.4373 63.7396 93.3488 62.3348 93.2218 60.9069C94.1724 59.1903 95.1693 57.0888 96.0468 54.9219L96.1931 54.514C96.9821 52.5549 97.594 50.6882 98.129 48.9062C98.2791 49.014 98.4639 49.0871 98.664 49.1102H98.6679L99.2106 49.1564C99.8649 49.2256 100.442 48.6868 100.496 47.8516L101.081 40.4195C101.081 40.4156 101.081 40.4118 101.081 40.4118C101.081 39.7844 100.612 39.2687 100.007 39.1917H99.9996H99.9341C100.084 38.1102 100.169 36.8632 100.169 35.5969C100.169 32.8334 99.7609 30.1623 99.0027 27.649L99.0528 27.8453C96.832 22.9727 92.4289 19.4356 87.1252 18.4465L87.0251 18.4311C85.8859 18.1963 84.558 18.0385 83.2032 18H83.1686H83.1224C81.7407 18.0269 80.4128 18.1809 79.1273 18.4542L79.2659 18.4311C73.8698 19.4472 69.4744 22.9842 67.2806 27.7414L67.2382 27.8453C66.5224 30.1546 66.1105 32.8103 66.1105 35.5584C66.1105 36.8401 66.1991 38.1025 66.3723 39.3341L66.3569 39.1917C65.7449 39.261 65.2715 39.7729 65.2715 40.3964V40.4233L65.8565 47.8555C65.9104 48.7099 66.4954 49.2256 67.1266 49.1564L67.1305 49.1448Z" fill="#F7DECE"/>
<path d="M124.43 98.3337C124.161 86.6332 122.99 83.9852 122.359 82.1917C122.109 81.4719 121.905 76.607 113.869 73.451C108.942 71.5112 102.584 71.4727 97.2032 69.198V75.5255C97.1917 82.3302 92.3191 87.9919 85.8723 89.2274L85.7837 89.2428C85.6644 89.9433 85.064 90.4667 84.3443 90.4744H84.275V95.247C84.275 99.9117 88.0545 103.691 92.7193 103.691C97.3841 103.691 101.164 99.9117 101.164 95.247V91.9139C98.8236 91.5636 97.0493 89.5699 97.0493 87.1605C97.0493 84.5087 99.2008 82.3572 101.853 82.3572C104.504 82.3572 106.656 84.5087 106.656 87.1605C106.656 89.262 105.305 91.0479 103.427 91.7022L103.392 91.7137V95.247V95.4278C103.392 101.324 98.6119 106.105 92.7155 106.105C86.8191 106.105 82.0388 101.324 82.0388 95.4278C82.0388 95.3624 82.0388 95.3008 82.0388 95.2354V95.2431V90.4282C81.3537 90.382 80.7995 89.8663 80.6917 89.2043V89.1966C74.1872 87.9303 69.3376 82.2879 69.3222 75.5101V69.1326C63.9185 71.4534 57.5217 71.4996 52.5682 73.4433C44.5088 76.5955 44.324 81.4489 44.0777 82.1801C43.4619 83.9814 42.2764 86.6178 42.007 98.326C41.9608 99.8656 42.007 102.225 46.6487 104.288C56.7558 108.252 69.7764 109.484 82.6123 110.369H83.8439C96.7067 109.492 109.708 108.264 119.807 104.288C124.43 102.236 124.472 99.8887 124.43 98.3337ZM67.9251 93.5612H63.1295V98.3761H59.704V93.5766H54.9083V90.1511H59.704V85.3554H63.1295V90.1511H67.9251V93.5612Z" fill="#0EA89C"/>
<path d="M104.45 87.1215C104.45 85.6897 103.292 84.5273 101.86 84.5273C100.428 84.5273 99.2695 85.6858 99.2695 87.1176C99.2695 88.5494 100.428 89.7079 101.86 89.7079C103.288 89.7079 104.446 88.5494 104.45 87.1215Z" fill="black"/>
</g>
<defs>
<filter id="filter0_i_13_107" x="0" y="0" width="166" height="130" filterUnits="userSpaceOnUse" color-interpolation-filters="sRGB">
<feFlood flood-opacity="0" result="BackgroundImageFix"/>
<feBlend mode="normal" in="SourceGraphic" in2="BackgroundImageFix" result="shape"/>
<feColorMatrix in="SourceAlpha" type="matrix" values="0 0 0 0 0 0 0 0 0 0 0 0 0 0 0 0 0 0 127 0" result="hardAlpha"/>
<feOffset dy="4"/>
<feGaussianBlur stdDeviation="2"/>
<feComposite in2="hardAlpha" operator="arithmetic" k2="-1" k3="1"/>
<feColorMatrix type="matrix" values="0 0 0 0 0 0 0 0 0 0 0 0 0 0 0 0 0 0 0.25 0"/>
<feBlend mode="normal" in2="shape" result="effect1_innerShadow_13_107"/>
</filter>
<linearGradient id="paint0_linear_13_107" x1="83.1588" y1="11.9894" x2="83.1588" y2="131.228" gradientUnits="userSpaceOnUse">
<stop stop-color="#AFC1DC"/>
<stop offset="1" stop-color="#E2E5ED"/>
</linearGradient>
</defs>
</svg>
