<svg width="166" height="126" viewBox="0 0 166 126" fill="none" xmlns="http://www.w3.org/2000/svg">
<g filter="url(#filter0_i_13_69)">
<path d="M166 105.926C166 138.853 115.889 121.355 83.1588 121.355C50.4291 121.355 0 138.853 0 105.926C0 72.9996 50.4291 0 83.1588 0C115.889 0 166 72.9996 166 105.926Z" fill="url(#paint0_linear_13_69)"/>
<mask id="mask0_13_69" style="mask-type:alpha" maskUnits="userSpaceOnUse" x="21" y="0" width="115" height="113">
<ellipse cx="78.5" cy="56.5" rx="57.5" ry="56.5" fill="url(#paint1_linear_13_69)"/>
</mask>
<g mask="url(#mask0_13_69)">
<path d="M91.2857 59.2465H79.4252C74.6398 59.2465 70.5297 63.2877 70.5297 67.9872V117.523H98.9641V94.0362L100.184 89.4417V67.9872C100.184 63.2851 96.071 59.2465 91.2857 59.2465Z" fill="#0EA89C"/>
<path d="M80.2841 66.384C77.0988 66.384 74.044 67.6274 71.7917 69.8405C69.5394 72.0537 68.2741 75.0553 68.2741 78.1852C68.2741 81.315 69.5394 84.3167 71.7917 86.5298C74.044 88.743 77.0988 89.9863 80.2841 89.9863V66.384Z" fill="#0EA89C"/>
<path d="M80.2855 69.0078C77.8081 69.0078 75.4322 69.9748 73.6804 71.6962C71.9286 73.4175 70.9444 75.7521 70.9444 78.1865C70.9444 80.6208 71.9286 82.9554 73.6804 84.6768C75.4322 86.3981 77.8081 87.3651 80.2855 87.3651V69.0078Z" fill="#0EA89C"/>
<path d="M85.623 66.384C82.4377 66.384 79.3829 67.6274 77.1306 69.8405C74.8783 72.0537 73.6129 75.0553 73.6129 78.1852C73.6129 81.315 74.8783 84.3167 77.1306 86.5298C79.3829 88.743 82.4377 89.9863 85.623 89.9863V66.384Z" fill="#0EA89C"/>
<path d="M85.6226 69.0078C83.1452 69.0078 80.7692 69.9748 79.0174 71.6962C77.2656 73.4175 76.2815 75.7521 76.2815 78.1865C76.2815 80.6208 77.2656 82.9554 79.0174 84.6768C80.7692 86.3981 83.1452 87.3651 85.6226 87.3651V69.0078Z" fill="#0EA89C"/>
<path d="M63.7742 117.521H82.8675V80.1508C81.6414 79.9403 80.3997 79.8306 79.1551 79.823C73.2468 79.823 67.5805 82.1292 63.4027 86.2344C59.2249 90.3395 56.8778 95.9073 56.8778 101.713C56.8778 107.933 59.5307 113.535 63.7742 117.521Z" fill="#0EA89C"/>
<path d="M82.3912 70.7672V82.5447C81.322 82.3616 80.2391 82.266 79.1538 82.2589C76.5535 82.2585 73.9786 82.7615 71.5761 83.7392C69.1736 84.7168 66.9907 86.1499 65.152 87.9567C63.3133 89.7634 61.8548 91.9084 60.8598 94.2691C59.8649 96.6297 59.353 99.1599 59.3533 101.715C59.3536 104.808 60.1057 107.856 61.5471 110.606C62.9886 113.356 65.0776 115.727 67.6402 117.523H96.1867V63.3246L82.3912 70.7672Z" fill="#0EA89C"/>
<path d="M97.4681 65.0739L110.412 78.4852L98.968 90.3152L98.9627 98.3033L88.4473 105.316L81.3987 94.4613L96.4646 79.2247L91.2896 74.1817L97.4681 65.0739Z" fill="#0EA89C"/>
<path d="M97.4649 61.7965L112.048 76.7289C112.048 76.7289 117.111 80.736 112.048 85.4696C109.008 88.3097 89.96 100.916 89.96 100.916L84.0297 95.0888L100.187 79.6425L91.2891 70.9017L97.4649 61.7965Z" fill="#0EA89C"/>
<path d="M86.5053 95.3151C83.5055 93.912 80.6604 94.1061 77.9088 95.6875C76.593 96.4454 76.0566 97.8615 78.0716 98.3309C80.0946 98.7951 86.5053 95.3151 86.5053 95.3151Z" fill="#EEC2AD"/>
<path d="M90.5489 100.344C90.9198 104.973 84.6079 109.298 79.8199 108.734C76.3984 108.33 73.4199 99.2719 77.4793 98.1049C81.0983 97.0664 82.0992 93.8355 86.3934 95.0418C89.8043 96.0017 90.4128 98.5665 90.5489 100.344Z" fill="#F7DECE"/>
<path d="M87.3825 102.133L86.8167 100.976C86.8167 100.976 84.759 103.984 81.8979 105.146C79.7281 106.017 77.8999 106.103 76.9418 105.949C77.3528 106.717 77.3608 106.848 77.8999 107.339C80.8811 107.441 85.645 105.87 87.3825 102.133ZM81.4656 102.031C84.1078 100.253 84.8791 98.5533 84.8791 98.5533L84.017 97.4807C84.017 97.4807 80.9611 102.138 75.5379 101.9C75.578 102.55 75.5246 102.676 75.7194 103.342C76.448 103.366 79.3198 103.473 81.4656 102.031Z" fill="#E0AA94"/>
<path d="M73.8088 35.7234C74.1761 36.5819 74.3677 37.5031 74.3725 38.4344C74.3773 39.3657 74.1953 40.2887 73.8369 41.1509C73.4785 42.013 72.9507 42.7973 72.2837 43.459C71.6167 44.1206 70.8236 44.6466 69.9496 45.0069C69.0729 45.3618 68.1336 45.5435 67.1855 45.5416C66.2373 45.5397 65.2988 45.3541 64.4236 44.9956C63.5484 44.6371 62.7537 44.1127 62.0849 43.4523C61.4161 42.7918 60.8863 42.0084 60.5258 41.1466C60.1586 40.2878 59.9674 39.3663 59.9629 38.4347C59.9585 37.5032 60.1409 36.58 60.4998 35.7178C60.8587 34.8556 61.3871 34.0714 62.0546 33.41C62.7222 32.7485 63.5159 32.2229 64.3903 31.8631C65.2666 31.5082 66.2055 31.3266 67.1533 31.3286C68.1011 31.3306 69.0392 31.5162 69.914 31.8747C70.7887 32.2333 71.583 32.7577 72.2513 33.4181C72.9196 34.0785 73.4489 34.8618 73.8088 35.7234Z" fill="#292F33"/>
<path d="M88.248 54.0569C91.4587 50.2937 93.375 45.4841 91.7283 41.5976L89.006 35.1541C74.2897 40.5984 68.234 33.127 68.234 33.127C68.234 33.127 71.1164 39.9401 64.9299 43.4097L68.2207 51.1932C70.9109 57.5501 74.578 62.1027 81.0393 59.4933L81.2582 60.3483C81.808 62.4908 81.405 64.2243 84.6157 64.3449C86.8602 64.4288 89.8921 60.4899 89.3423 58.3473L88.248 54.0569Z" fill="#F7DECE"/>
<path d="M105.4 37.3055C107.6 31.5308 102.307 27.1407 97.802 26.6897C95.0691 26.4169 92.603 28.1294 91.402 30.1802C85.9281 21.1746 77.74 23.2962 72.5303 25.0978C67.011 27.007 58.8015 32.6217 62.0229 38.656C65.2442 44.693 76.0025 42.0967 76.0025 42.0967L79.8964 48.2648C78.8449 42.9569 82.4319 41.7715 84.0893 42.928C85.8347 44.1475 84.6764 48.0576 85.4717 49.5996C86.2671 51.1416 89.0214 53.2554 89.0214 53.2554C90.7135 51.1416 96.0539 43.8721 93.5585 35.0685C94.5913 34.6882 96.142 34.9452 97.3937 35.5877C100.575 37.211 98.0689 45.2988 102.494 47.8557C106.735 50.3077 109.222 46.9352 109.222 46.9352C104.877 47.0768 103.3 42.8258 105.4 37.3055Z" fill="#292F33"/>
<path d="M70.5221 54.0121L69.7 54.3478C69.6139 54.3855 69.5209 54.4059 69.4267 54.4078C69.3324 54.4097 69.2386 54.3931 69.151 54.3589C69.0633 54.3247 68.9835 54.2736 68.9163 54.2086C68.849 54.1436 68.7957 54.0661 68.7594 53.9806C68.723 53.8951 68.7045 53.8033 68.7048 53.7106C68.7052 53.6179 68.7244 53.5263 68.7613 53.441C68.7982 53.3557 68.8521 53.2785 68.9198 53.214C68.9875 53.1495 69.0677 53.099 69.1556 53.0654L69.9803 52.7297C70.0668 52.6898 70.1606 52.6676 70.2561 52.6644C70.3516 52.6611 70.4468 52.6769 70.5359 52.7108C70.6251 52.7447 70.7063 52.796 70.7746 52.8616C70.843 52.9272 70.8972 53.0057 70.9338 53.0924C70.9704 53.1792 70.9888 53.2723 70.9878 53.3662C70.9868 53.4601 70.9665 53.5528 70.928 53.6387C70.8895 53.7247 70.8337 53.8021 70.7639 53.8663C70.6942 53.9304 70.6119 53.98 70.5221 54.0121Z" fill="#BF6952"/>
<path d="M70.9265 48.5793C70.5803 48.7201 70.1915 48.7202 69.8452 48.5796C69.499 48.439 69.2236 48.1692 69.0796 47.8293L68.5325 46.5417C68.3885 46.2009 68.3881 45.8178 68.5315 45.4767C68.6749 45.1357 68.9503 44.8645 69.2972 44.723C69.644 44.5815 70.0339 44.5811 70.381 44.722C70.7281 44.8629 71.004 45.1335 71.148 45.4743L71.6925 46.7593C71.7642 46.9282 71.8012 47.1093 71.8015 47.2923C71.8018 47.4753 71.7653 47.6566 71.6942 47.8257C71.623 47.9947 71.5186 48.1484 71.3868 48.2777C71.2551 48.407 71.0987 48.5096 70.9265 48.5793Z" fill="#662113"/>
<path d="M71.6415 57.161C72.29 57.9346 72.9999 58.5797 73.7659 59.0832C76.5816 57.4862 76.7791 55.063 76.7791 55.063L71.7749 57.1059L71.6415 57.161Z" fill="#DF1F32"/>
</g>
</g>
<defs>
<filter id="filter0_i_13_69" x="0" y="0" width="166" height="130" filterUnits="userSpaceOnUse" color-interpolation-filters="sRGB">
<feFlood flood-opacity="0" result="BackgroundImageFix"/>
<feBlend mode="normal" in="SourceGraphic" in2="BackgroundImageFix" result="shape"/>
<feColorMatrix in="SourceAlpha" type="matrix" values="0 0 0 0 0 0 0 0 0 0 0 0 0 0 0 0 0 0 127 0" result="hardAlpha"/>
<feOffset dy="4"/>
<feGaussianBlur stdDeviation="2"/>
<feComposite in2="hardAlpha" operator="arithmetic" k2="-1" k3="1"/>
<feColorMatrix type="matrix" values="0 0 0 0 0 0 0 0 0 0 0 0 0 0 0 0 0 0 0.25 0"/>
<feBlend mode="normal" in2="shape" result="effect1_innerShadow_13_69"/>
</filter>
<linearGradient id="paint0_linear_13_69" x1="83.1588" y1="11.9894" x2="83.1588" y2="131.228" gradientUnits="userSpaceOnUse">
<stop stop-color="#AFC1DC"/>
<stop offset="1" stop-color="#E2E5ED"/>
</linearGradient>
<linearGradient id="paint1_linear_13_69" x1="78.5" y1="0" x2="78.5" y2="113" gradientUnits="userSpaceOnUse">
<stop stop-color="#AFC1DC"/>
<stop offset="1" stop-color="#E2E5ED"/>
</linearGradient>
</defs>
</svg>
