<svg width="166" height="126" viewBox="0 0 166 126" fill="none" xmlns="http://www.w3.org/2000/svg">
<g filter="url(#filter0_i_12_70)">
<path d="M166 105.926C166 138.853 115.889 121.355 83.1588 121.355C50.4291 121.355 0 138.853 0 105.926C0 72.9996 50.4291 0 83.1588 0C115.889 0 166 72.9996 166 105.926Z" fill="url(#paint0_linear_12_70)"/>
<circle cx="83.3187" cy="56.7894" r="26.641" fill="#0EA89C"/>
<path d="M89.88 59.5123C88.5149 59.5123 87.4275 59.2492 86.5536 58.8438C85.246 58.2384 84.3991 57.3054 83.866 56.3738C83.6004 55.9107 83.4164 55.4501 83.3009 55.0448C83.1854 54.6407 83.1398 54.2849 83.1411 54.0728C83.1411 53.6674 82.8136 53.3398 82.4095 53.3398C82.0054 53.3398 81.6777 53.6674 81.6777 54.0728C81.6777 54.336 81.7101 54.626 81.7745 54.9454C81.8871 55.5051 82.0965 56.1494 82.4417 56.8166C82.9557 57.8114 83.7747 58.8571 84.999 59.6492C85.3064 59.8519 85.6351 60.0331 85.9923 60.1943C86.0486 60.4371 86.1278 60.8627 86.1267 61.3796C86.1267 61.754 86.085 62.1703 85.9723 62.5985C85.8593 63.0267 85.6756 63.4617 85.3802 63.8871C85.1533 64.2213 85.234 64.675 85.5667 64.9046C85.8983 65.1343 86.3535 65.0525 86.583 64.7196C86.9829 64.1435 87.2367 63.5436 87.3872 62.973C87.5362 62.401 87.5884 61.8561 87.5884 61.3796C87.5884 61.142 87.575 60.9177 87.5563 60.7165C88.2596 60.8789 89.0303 60.9755 89.8799 60.9755C90.2839 60.9755 90.6116 60.6481 90.6116 60.2439C90.6118 59.84 90.2843 59.5123 89.88 59.5123Z" fill="#BCCBE1"/>
<path d="M93.123 50.0959C92.7713 49.8999 92.3269 50.0207 92.127 50.3739C91.9283 50.7242 92.0532 51.1699 92.4049 51.3699C92.9444 51.6786 93.2721 52.0195 93.4923 52.3727C92.5901 52.6893 91.7927 52.821 91.0853 52.821C90.0529 52.8197 89.2087 52.5472 88.4944 52.1284C87.7841 51.7109 87.211 51.1378 86.7747 50.5457C86.0567 49.5657 85.1237 48.6946 84.0229 48.0583C82.9222 47.4247 81.6508 47.0273 80.2844 47.0273C79.0883 47.0273 77.8278 47.3361 76.5767 48.022C76.0666 48.3014 75.6223 48.6288 75.237 48.9873C73.716 49.5726 72.4072 49.7847 71.2971 49.7847C69.7172 49.7819 68.5384 49.3604 67.7492 48.9443C67.3559 48.7349 67.0618 48.5281 66.8714 48.3778C66.7761 48.3014 66.7049 48.2423 66.6618 48.202L66.6189 48.1604L66.6108 48.1524C66.3302 47.8652 65.8697 47.857 65.5784 48.1361C65.2885 48.4166 65.2804 48.8785 65.5596 49.1698C65.6025 49.2116 66.1034 49.7242 67.0658 50.2358C67.4871 50.4586 68.0027 50.6774 68.5988 50.856C68.4405 51.0787 68.2241 51.4063 67.9881 51.8196C67.5358 52.6185 67.0161 53.7406 66.7531 55.0604C66.6711 55.4589 66.929 55.8429 67.3249 55.9221C67.721 56.0027 68.1048 55.7435 68.184 55.3475C68.4056 54.2348 68.8619 53.244 69.2606 52.5419C69.4607 52.1875 69.6444 51.9097 69.7774 51.7191C69.8445 51.6264 69.8969 51.5526 69.9331 51.5069C69.9506 51.4841 69.9641 51.4681 69.972 51.4573L69.9827 51.4466L69.984 51.4439C70.05 51.362 70.0942 51.2693 70.1197 51.1701C70.4914 51.2184 70.8821 51.2453 71.297 51.2453C72.0648 51.2453 72.9079 51.1541 73.8153 50.9486C73.3629 51.9166 73.179 52.9287 73.1775 53.855C73.1803 54.7866 73.3575 55.635 73.6757 56.309C73.8487 56.6728 74.2851 56.8299 74.6489 56.6566C75.0126 56.4833 75.1698 56.0486 74.9965 55.6833C74.7938 55.2616 74.6379 54.5932 74.6407 53.8549C74.6394 53.0575 74.8139 52.1823 75.2261 51.3808C75.6408 50.5808 76.2825 49.8518 77.2799 49.3041C78.3311 48.7267 79.3379 48.4906 80.2842 48.4878C81.3649 48.4906 82.3823 48.8018 83.2924 49.3255C84.2 49.8477 84.992 50.586 85.596 51.4089C86.1275 52.1351 86.839 52.8492 87.7533 53.3889C88.666 53.9286 89.7882 54.2844 91.0851 54.2816C91.9429 54.2816 92.8744 54.1287 93.8786 53.7878L93.8799 53.8389C93.8799 54.1972 93.8236 54.5233 93.7684 54.7544C93.7416 54.8672 93.7134 54.9597 93.6933 55.0175C93.6839 55.047 93.6772 55.0686 93.6718 55.0819L93.6679 55.0927V55.094C93.5203 55.4684 93.7 55.8914 94.0746 56.0417C94.4504 56.1907 94.876 56.0082 95.0263 55.635C95.0464 55.5826 95.3377 54.851 95.3418 53.839C95.3418 53.259 95.2411 52.5772 94.9015 51.9047C94.5661 51.2289 93.9874 50.5832 93.123 50.0959Z" fill="#BCCBE1"/>
<path d="M74.354 44.6345C74.8577 44.0411 75.5731 43.574 76.3878 43.2612C77.2026 42.9443 78.1102 42.7873 78.9612 42.7873C79.7882 42.7873 80.5601 42.9389 81.1239 43.2034C81.4931 43.3725 81.9265 43.2116 82.0943 42.8463C82.2635 42.4798 82.1038 42.0436 81.7385 41.8773C80.9224 41.4987 79.9612 41.3296 78.9611 41.3281C77.9329 41.3281 76.8617 41.512 75.8615 41.8961C74.8655 42.2799 73.9392 42.8666 73.2412 43.6922C72.9781 43.9995 73.017 44.46 73.3244 44.7203C73.6332 44.9834 74.0963 44.9433 74.354 44.6345Z" fill="#BCCBE1"/>
<path d="M85.652 25.1957C67.6318 24.0868 52.4574 35.4234 52.8009 53.8934L52.7876 55.5649L44.9587 69.3903C44.5371 70.1353 44.4994 71.0387 44.8567 71.8174C45.2137 72.596 45.9225 73.1557 46.7628 73.3222L51.601 74.6565L53.1205 89.3155C53.1608 90.729 53.7891 92.0608 54.8549 92.9884C55.9208 93.9174 57.3277 94.3564 58.7319 94.1992L62.5952 94.5067C63.3495 94.4234 64.1041 94.6637 64.6691 95.1712C65.2343 95.676 65.5579 96.3994 65.5579 97.158V108.678H98.2466C98.2466 108.678 98.2466 103.092 98.2466 100.864C98.2466 98.6342 99.0171 93.5386 100.475 91.2053C105.775 82.7321 114.401 78.2243 115.856 60.8484C117.313 43.4697 106.941 26.5073 85.652 25.1957ZM107.4 54.9942C106.667 56.2051 105.482 56.9594 104.188 57.1823C103.791 57.2522 103.522 57.628 103.589 58.0267C103.661 58.4239 104.038 58.6939 104.435 58.6227C104.732 58.5716 105.024 58.4979 105.313 58.4052C105.624 59.0508 105.78 59.7448 105.78 60.4361C105.78 61.1745 105.604 61.9074 105.267 62.5704C104.932 63.2324 104.435 63.8217 103.783 64.2807C102.962 64.8565 102.029 65.1303 101.103 65.1318C101.029 65.1318 100.957 65.1238 100.884 65.1224C100.868 65.0001 100.853 64.8794 100.832 64.7599V64.7584C100.672 63.9114 100.341 63.1356 99.8884 62.4616L99.8332 62.3798L99.7582 62.3154C99.2051 61.8401 98.4707 61.0615 97.9042 60.2682C97.6183 59.8723 97.3755 59.4708 97.2116 59.1138C97.0465 58.7554 96.9699 58.4438 96.9727 58.2599C96.9727 58.178 96.9848 58.1215 97.0009 58.084C97.0143 58.0478 97.0277 58.0262 97.0559 57.9967C97.3406 57.7134 97.3406 57.2489 97.0559 56.9617C96.77 56.6784 96.3083 56.6784 96.0237 56.9617C95.8437 57.1389 95.7094 57.3535 95.6276 57.5805C95.5431 57.8035 95.5121 58.0355 95.5121 58.2597C95.5147 58.7658 95.6678 59.2464 95.8825 59.7217C96.2088 60.4319 96.6946 61.1366 97.2222 61.7809C97.7177 62.385 98.2425 62.9287 98.7152 63.3448C99.0414 63.8429 99.2788 64.4067 99.3957 65.0282C99.444 65.2901 99.4695 65.5504 99.4748 65.7988V65.8042C99.4748 65.8363 99.4761 65.8687 99.4761 65.9034C99.4761 67.007 99.0828 68.0527 98.4075 68.8756C97.7311 69.6971 96.7793 70.2944 95.6503 70.5066C95.3562 70.5629 95.0636 70.5898 94.7762 70.5898C93.2259 70.5911 91.792 69.8112 90.9303 68.5735C91.3948 68.1023 91.7909 67.5506 92.0915 66.9236V66.9249C92.466 66.1503 92.6633 65.3288 92.6982 64.5154C92.7157 64.1127 92.4043 63.7717 92.0016 63.7543C91.5962 63.7355 91.2564 64.0495 91.2376 64.4523C91.2122 65.0724 91.0619 65.6939 90.7759 66.2873L90.7746 66.29C90.4672 66.9249 90.0403 67.4566 89.5301 67.8768L89.5275 67.8781C88.6872 68.564 87.6279 68.9426 86.5447 68.9426C85.8629 68.9426 85.1701 68.7936 84.5123 68.4754C83.2948 67.8902 82.4491 66.8472 82.0746 65.6537H82.0733C81.931 65.2013 81.8572 64.7248 81.8572 64.247C81.8572 63.5637 82.0062 62.8709 82.3243 62.2119C82.5002 61.8481 82.3458 61.4106 81.9821 61.2373C81.6196 61.0615 81.1834 61.2131 81.0075 61.5771C80.5941 62.4361 80.394 63.3504 80.394 64.2471C80.394 64.682 80.4451 65.1116 80.5337 65.5317C79.9632 65.8432 79.3202 66.0431 78.6248 66.0927H78.6235C78.5094 66.1009 78.3979 66.1061 78.2852 66.1061C77.187 66.1061 76.1709 65.7249 75.3654 65.0791C74.6607 64.5154 74.1212 63.7569 73.8338 62.8735C74.3466 62.3676 74.7735 61.7729 75.0862 61.1137C75.258 60.7485 75.1022 60.3136 74.7373 60.1417C74.3735 59.9686 73.9345 60.1243 73.7639 60.4907C73.4753 61.103 73.0537 61.6466 72.5396 62.0802C71.8067 62.699 70.883 63.0964 69.8549 63.1704H69.8536C69.7395 63.1783 69.628 63.1837 69.5167 63.1837C67.1971 63.1837 65.2157 61.4695 64.88 59.1768L64.8787 59.1701V59.1661C64.8599 59.056 64.8478 58.9419 64.8398 58.8238C64.8318 58.7123 64.8278 58.5969 64.8278 58.4841C64.8278 58.1901 64.856 57.8989 64.9084 57.6182C64.9795 57.2208 64.7179 56.8396 64.3205 56.7658C63.9259 56.6947 63.5434 56.9538 63.4682 57.3511C63.4022 57.7187 63.3662 58.0974 63.3662 58.484L63.3675 58.5282C62.7098 58.4544 62.072 58.2436 61.5015 57.9094C60.7792 57.488 60.1657 56.8705 59.7416 56.0783C59.3644 55.3708 59.1857 54.6178 59.1857 53.8714C59.1857 52.9075 59.4852 51.9613 60.0369 51.1705C60.2504 51.4711 60.4906 51.7544 60.7604 52.0201C61.3779 52.6255 62.0921 53.0738 62.8479 53.3664C63.225 53.5143 63.6467 53.3261 63.7929 52.9477C63.9406 52.5718 63.7513 52.149 63.3768 52.0026C62.7982 51.7797 62.2558 51.4389 61.7859 50.9771V50.9758C61.3698 50.5704 61.0476 50.1085 60.818 49.6132C60.5228 48.9849 60.3751 48.3018 60.3751 47.6239C60.3762 46.4345 60.8193 45.2559 61.7133 44.3431C62.4745 43.5671 63.4329 43.1133 64.4276 42.9752H64.4289H64.4315C64.6437 42.9483 64.8557 42.9336 65.0678 42.9336C66.2546 42.9349 67.4345 43.382 68.35 44.2747C68.6387 44.5553 69.1004 44.5525 69.3837 44.2627C69.6657 43.9754 69.6604 43.5136 69.373 43.2303C68.2077 42.0892 66.699 41.5053 65.1886 41.4785C65.359 40.779 65.6867 40.1282 66.1457 39.5804C66.7834 38.8207 67.6547 38.2594 68.6963 38.0192C69.0508 37.9401 69.3997 37.8998 69.7473 37.8998C70.3595 37.8998 70.9555 38.0231 71.506 38.2461C71.3503 38.7911 71.2643 39.363 71.2643 39.9564C71.2643 40.359 71.5907 40.6852 71.9946 40.6852C72.3985 40.6852 72.7247 40.359 72.7247 39.9564C72.7247 39.3173 72.8551 38.7066 73.0833 38.1522C73.4362 37.3038 74.0337 36.5816 74.7841 36.0715C75.5371 35.5613 76.4379 35.2648 77.4165 35.2648C78.826 35.2648 80.0839 35.8808 80.9456 36.8648C81.6718 37.6904 82.1082 38.7696 82.1082 39.9564C82.1082 40.359 82.4372 40.6852 82.8398 40.6852C83.2439 40.6852 83.5727 40.359 83.5727 39.9564C83.5727 38.6058 83.1352 37.3534 82.3954 36.3399C82.7741 35.8164 83.256 35.3707 83.8143 35.0405C84.5123 34.6298 85.3245 34.3922 86.1958 34.3922C87.1998 34.3922 88.122 34.705 88.8832 35.2392C89.6471 35.7735 90.2431 36.5307 90.5801 37.4098H90.5788C90.7776 37.9321 90.8863 38.4931 90.8863 39.0852C90.8863 39.488 91.2151 39.8154 91.6179 39.8154C92.0207 39.8154 92.3508 39.488 92.3508 39.0852C92.3508 38.4811 92.2581 37.8999 92.0957 37.3482C92.963 36.5428 94.1107 36.0863 95.296 36.0863C95.9149 36.0863 96.5432 36.2085 97.1498 36.4675C97.9955 36.8341 98.6749 37.4126 99.1594 38.1188C99.6441 38.8262 99.9285 39.6558 99.9783 40.5148C99.9837 40.6034 99.9878 40.6908 99.9878 40.7792C99.985 41.3995 99.8628 42.0251 99.6025 42.6331C99.4429 43.0038 99.6145 43.4333 99.985 43.5916C100.357 43.7514 100.785 43.5808 100.946 43.2104C101.217 42.5794 101.373 41.9283 101.425 41.2747C102.142 41.3256 102.84 41.5431 103.458 41.9082C104.163 42.3244 104.765 42.9337 105.176 43.715C105.536 44.3983 105.705 45.1245 105.706 45.844C105.706 46.1729 105.666 46.4991 105.595 46.8186C105.157 46.6468 104.701 46.5314 104.246 46.4642C103.849 46.4092 103.477 46.6884 103.423 47.0884C103.365 47.4886 103.645 47.8576 104.042 47.9127C104.502 47.9783 104.955 48.11 105.387 48.314C105.462 48.439 105.578 48.5423 105.723 48.6055C105.811 48.6443 105.906 48.6633 105.999 48.6633C106.269 48.8431 106.515 49.0458 106.734 49.2673L106.735 49.2686C107.613 50.1531 108.084 51.3466 108.084 52.5668C108.084 53.3953 107.865 54.233 107.4 54.9942Z" fill="#F7DECE"/>
<path d="M99.8061 48.5326C99.4436 48.2197 99.0544 47.9633 98.6421 47.7835C98.2286 47.6009 97.7937 47.4922 97.3494 47.4922C96.9454 47.4922 96.6191 47.8197 96.6191 48.2238C96.6191 48.6279 96.9454 48.9541 97.3494 48.9541C97.6179 48.9541 97.9562 49.0468 98.3159 49.2536C98.8515 49.5609 99.4087 50.1139 99.8114 50.8039C100.22 51.4953 100.48 52.3155 100.477 53.1652C100.475 54.0982 100.181 55.0729 99.3832 56.0406C99.1281 56.3507 99.1711 56.8125 99.4824 57.0689C99.794 57.3281 100.256 57.2824 100.512 56.9736C101.515 55.7614 101.943 54.4191 101.942 53.1652C101.942 52.4028 101.786 51.6725 101.531 51.0066C101.144 50.0092 100.53 49.1579 99.8061 48.5326Z" fill="#C0CDE2"/>
<path d="M94.7504 45.2182C92.7408 45.2182 91.1286 44.4773 90.0116 43.5094C89.4532 43.026 89.0263 42.4865 88.7457 41.9683C88.4611 41.4515 88.3322 40.9588 88.3349 40.5896C88.3349 40.187 88.0074 39.8595 87.6046 39.8595C87.2006 39.8595 86.873 40.187 86.873 40.5896C86.8756 41.2757 87.0906 41.9817 87.461 42.6665C87.8517 43.3806 88.421 44.0746 89.1418 44.6839C88.9967 44.8853 88.7968 45.1484 88.5389 45.4263C87.9831 46.0344 87.1805 46.7069 86.2206 47.0493C85.8434 47.1835 85.6433 47.6009 85.779 47.9821C85.9144 48.3634 86.3307 48.5594 86.7133 48.4251C88.0141 47.958 88.9859 47.1056 89.6477 46.3792C89.9418 46.0571 90.1699 45.7605 90.3405 45.5242C91.5486 46.2209 93.0427 46.6815 94.7502 46.6815C95.1543 46.6815 95.4804 46.3539 95.4804 45.9512C95.4805 45.5472 95.1543 45.2182 94.7504 45.2182Z" fill="#BCCBE1"/>
</g>
<defs>
<filter id="filter0_i_12_70" x="0" y="0" width="166" height="130" filterUnits="userSpaceOnUse" color-interpolation-filters="sRGB">
<feFlood flood-opacity="0" result="BackgroundImageFix"/>
<feBlend mode="normal" in="SourceGraphic" in2="BackgroundImageFix" result="shape"/>
<feColorMatrix in="SourceAlpha" type="matrix" values="0 0 0 0 0 0 0 0 0 0 0 0 0 0 0 0 0 0 127 0" result="hardAlpha"/>
<feOffset dy="4"/>
<feGaussianBlur stdDeviation="2"/>
<feComposite in2="hardAlpha" operator="arithmetic" k2="-1" k3="1"/>
<feColorMatrix type="matrix" values="0 0 0 0 0 0 0 0 0 0 0 0 0 0 0 0 0 0 0.25 0"/>
<feBlend mode="normal" in2="shape" result="effect1_innerShadow_12_70"/>
</filter>
<linearGradient id="paint0_linear_12_70" x1="83.1588" y1="11.9894" x2="83.1588" y2="131.228" gradientUnits="userSpaceOnUse">
<stop stop-color="#AFC1DC"/>
<stop offset="1" stop-color="#E2E5ED"/>
</linearGradient>
</defs>
</svg>
