<svg width="166" height="126" viewBox="0 0 166 126" fill="none" xmlns="http://www.w3.org/2000/svg">
<g filter="url(#filter0_i_12_57)">
<path d="M166 105.926C166 138.853 115.889 121.355 83.1588 121.355C50.4291 121.355 0 138.853 0 105.926C0 72.9996 50.4291 0 83.1588 0C115.889 0 166 72.9996 166 105.926Z" fill="url(#paint0_linear_12_57)"/>
<path d="M111.646 71.9102H56.5352C50.5962 71.9102 45.7344 76.5876 45.7344 82.3126C45.7344 88.0302 50.5962 92.715 56.5352 92.715H111.646C117.585 92.715 122.447 88.0376 122.447 82.3126C122.454 76.5876 117.592 71.9102 111.646 71.9102Z" fill="#EDC391"/>
<path d="M113.425 45.4631C106.335 34.6771 97.1945 30.9883 83.9148 30.9883C70.6351 30.9883 61.4943 34.6697 54.4044 45.4631C49.2106 53.3719 47.9564 65.8032 49.5573 78.6107C51.0993 90.9239 52.3756 97.6818 60.0188 104.58C66.6586 110.57 75.674 111.862 83.4058 111.862H84.4239C92.1556 111.862 101.178 110.57 107.811 104.58C115.454 97.6818 116.73 90.9239 118.272 78.6107C119.873 65.8032 118.619 53.3645 113.425 45.4631Z" fill="#F7DECE"/>
<path d="M94.905 46.6416C95.0083 46.5309 95.1116 46.4276 95.2149 46.3169C95.2886 46.2358 95.3624 46.1473 95.4362 46.0661C95.6059 45.8669 95.7682 45.6677 95.9231 45.4611L95.9895 45.3726C96.1371 45.1734 96.2699 44.9668 96.4027 44.7529C96.4396 44.6939 96.4764 44.6275 96.5133 44.5684C96.6388 44.3545 96.7642 44.1405 96.8822 43.9118C96.9043 43.875 96.9191 43.8454 96.9339 43.8086C97.2142 43.2552 97.4577 42.6576 97.6569 42.0306L97.679 41.9642C98.0848 40.6583 98.3208 39.2049 98.3208 37.5671C98.3208 34.2915 97.1404 31.7019 95.3403 29.7468C95.3182 29.7247 95.3034 29.71 95.2886 29.6878C95.1485 29.5403 95.0009 29.3927 94.8534 29.2452L94.7648 29.1566C94.5931 28.9933 94.416 28.8359 94.2337 28.6845C94.0861 28.5591 93.9385 28.441 93.791 28.323C93.7541 28.2935 93.7172 28.2713 93.6877 28.2418L93.2008 27.8877C93.1713 27.8729 93.1491 27.8508 93.1196 27.8361C92.5294 27.4377 91.9171 27.0835 91.2826 26.7811C91.2605 26.7663 91.231 26.7589 91.2088 26.7442C91.0244 26.6556 90.84 26.5745 90.6555 26.4933L90.4858 26.4196C90.3235 26.3532 90.1612 26.2868 89.9989 26.2277C89.9399 26.2056 89.8735 26.1835 89.8145 26.1613C89.6595 26.1023 89.5046 26.0507 89.3571 25.999L89.1579 25.9326C89.0029 25.881 88.8554 25.8367 88.7005 25.7925C88.6341 25.7703 88.5677 25.7556 88.4939 25.7334C88.3389 25.6892 88.184 25.6523 88.0291 25.6154L87.8373 25.5711C87.6676 25.5342 87.4979 25.4974 87.3356 25.4605C87.284 25.4531 87.2323 25.4383 87.1807 25.431C86.7454 25.335 86.3101 25.2686 85.8748 25.217C85.8158 25.2096 85.7568 25.2096 85.6978 25.2022C85.5428 25.1875 85.3953 25.1727 85.2404 25.1654C85.1518 25.158 85.0707 25.158 84.9821 25.1506C84.8567 25.1432 84.7387 25.1358 84.6206 25.1358C84.5247 25.1358 84.4288 25.1285 84.3255 25.1285C84.2591 25.1285 84.1927 25.1211 84.1337 25.1211H84.0599C83.7427 25.1211 83.4255 25.1358 83.1156 25.158C83.0566 25.1654 82.9976 25.1654 82.9385 25.1727C82.6213 25.2022 82.3115 25.2318 82.0163 25.2834C78.3939 25.8736 75.465 27.777 73.6354 29.6362C72.5361 30.7502 71.8353 31.8495 71.6213 32.6389H71.6287C73.9748 32.0413 77.007 31.5175 80.3859 31.3404C84.96 31.0232 88.7816 33.6275 88.5972 37.6261C88.575 38.1057 88.516 38.5557 88.4349 38.9762L88.4127 39.1016C88.3758 39.264 88.3316 39.4263 88.2873 39.5812C88.2652 39.655 88.243 39.7287 88.2283 39.7951C88.184 39.9279 88.1398 40.0607 88.0881 40.1935C88.0586 40.2747 88.0217 40.3558 87.9848 40.437C87.9332 40.555 87.8815 40.6657 87.8299 40.769C87.7856 40.8575 87.7414 40.9387 87.6897 41.0198C87.6381 41.1157 87.5791 41.2116 87.52 41.3002C87.461 41.3887 87.3946 41.4772 87.3356 41.5658C87.284 41.6395 87.2323 41.7133 87.1733 41.7871C87.0774 41.9051 86.9741 42.0158 86.8708 42.1191C86.8413 42.1486 86.8118 42.1855 86.7823 42.215C86.6421 42.3552 86.4946 42.4806 86.3396 42.606C86.3101 42.6281 86.2732 42.6503 86.2437 42.6724C86.1181 42.77 85.9876 42.8611 85.8527 42.9454C85.8084 42.9675 85.7715 42.997 85.7273 43.0192C85.5945 43.1003 85.4617 43.1741 85.3289 43.2405C85.2846 43.2626 85.2477 43.2847 85.2035 43.2995C85.0633 43.3659 84.9157 43.4323 84.7608 43.4913C84.7313 43.5061 84.6944 43.5208 84.6575 43.5282C84.4878 43.5946 84.3182 43.6536 84.1411 43.7053C84.1263 43.7126 84.1116 43.7126 84.0968 43.72C83.3 43.9561 82.4442 44.0594 81.5737 44.0594C78.9473 44.0594 76.2249 43.0856 74.6609 41.6912C74.5316 41.5736 74.3635 41.5079 74.1887 41.5067C74.1518 41.5067 74.1149 41.5215 74.0854 41.5289C74.0559 41.5363 74.019 41.5363 73.9895 41.551C73.9453 41.5658 73.901 41.5805 73.8567 41.6027C73.7829 41.6395 73.7239 41.6838 73.6649 41.7355C73.6501 41.7502 73.6428 41.765 73.628 41.7797C73.5764 41.8387 73.5321 41.9125 73.4952 41.9863C73.4878 42.001 73.4878 42.0084 73.4805 42.0232C73.4436 42.1191 73.4214 42.2297 73.4362 42.3478C73.6575 44.5758 75.0593 47.3646 78.3939 49.4598C81.5663 51.4591 88.243 51.4813 92.9942 48.2277L93.127 48.1392C93.2672 48.0359 93.4147 47.9326 93.5549 47.8294C93.6139 47.7851 93.6803 47.7334 93.7394 47.6818C93.9459 47.5195 94.1451 47.3498 94.3369 47.1727L94.6247 46.9072C94.728 46.826 94.8165 46.7301 94.905 46.6416Z" fill="#312D2D"/>
<path d="M94.905 46.6416C95.0083 46.5309 95.1116 46.4276 95.2149 46.3169C95.2887 46.2358 95.3624 46.1473 95.4362 46.0661C95.6059 45.8669 95.7682 45.6677 95.9231 45.4611L95.9895 45.3726C96.1371 45.1734 96.2699 44.9668 96.4027 44.7529C96.4396 44.6939 96.4764 44.6275 96.5133 44.5684C96.6388 44.3545 96.7642 44.1405 96.8822 43.9118C96.9043 43.875 96.9191 43.8454 96.9339 43.8086C97.2142 43.2552 97.4577 42.6576 97.6569 42.0306L97.679 41.9642C98.0848 40.6583 98.3208 39.2049 98.3208 37.5671C98.3208 34.2915 97.1404 31.7019 95.3403 29.7468C95.3182 29.7247 95.3034 29.71 95.2886 29.6878C95.1485 29.5403 95.0009 29.3927 94.8534 29.2452L94.7648 29.1566C94.5931 28.9933 94.416 28.8359 94.2337 28.6845C94.0861 28.5591 93.9385 28.441 93.791 28.323C93.7541 28.2935 93.7172 28.2713 93.6877 28.2418L93.2008 27.8877C93.1713 27.8729 93.1491 27.8508 93.1196 27.8361C92.5294 27.4377 91.9171 27.0835 91.2826 26.7811C91.2605 26.7663 91.231 26.7589 91.2088 26.7442C91.0244 26.6556 90.84 26.5745 90.6555 26.4933L90.4858 26.4196C90.3235 26.3532 90.1612 26.2868 89.9989 26.2277C89.9399 26.2056 89.8735 26.1835 89.8145 26.1613C89.6595 26.1023 89.5046 26.0507 89.3571 25.999L89.1579 25.9326C89.0029 25.881 88.8554 25.8367 88.7005 25.7925C88.6341 25.7703 88.5677 25.7556 88.4939 25.7334C88.339 25.6892 88.184 25.6523 88.0291 25.6154L87.8373 25.5711C87.6676 25.5342 87.4979 25.4974 87.3356 25.4605C87.284 25.4531 87.2323 25.4383 87.1807 25.431C86.7454 25.335 86.3101 25.2686 85.8748 25.217C85.8158 25.2096 85.7568 25.2096 85.6978 25.2022C85.5428 25.1875 85.3953 25.1727 85.2404 25.1654C85.1518 25.158 85.0707 25.158 84.9821 25.1506C84.8567 25.1432 84.7387 25.1358 84.6206 25.1358C84.5247 25.1358 84.4288 25.1285 84.3255 25.1285C84.2591 25.1285 84.1927 25.1211 84.1337 25.1211H84.0599C83.7427 25.1211 83.4255 25.1358 83.1156 25.158C83.0566 25.1654 82.9976 25.1654 82.9385 25.1727C82.6213 25.2022 82.3115 25.2318 82.0163 25.2834C78.3939 25.8736 75.465 27.777 73.6354 29.6362C72.5361 30.7502 71.8353 31.8495 71.6213 32.6389H71.6287C73.9748 32.0413 77.007 31.5175 80.3859 31.3404C84.96 31.0232 88.7816 33.6275 88.5972 37.6261C88.575 38.1057 88.516 38.5557 88.4349 38.9762L88.4127 39.1016C88.3758 39.264 88.3316 39.4263 88.2873 39.5812C88.2652 39.655 88.243 39.7287 88.2283 39.7951C88.184 39.9279 88.1398 40.0607 88.0881 40.1935C88.0586 40.2747 88.0217 40.3558 87.9848 40.437C87.9332 40.555 87.8815 40.6657 87.8299 40.769C87.7856 40.8575 87.7414 40.9387 87.6897 41.0198C87.6381 41.1157 87.5791 41.2116 87.52 41.3002C87.461 41.3887 87.3946 41.4772 87.3356 41.5658C87.284 41.6395 87.2323 41.7133 87.1733 41.7871C87.0774 41.9051 86.9741 42.0158 86.8708 42.1191C86.8413 42.1486 86.8118 42.1855 86.7823 42.215C86.6421 42.3552 86.4946 42.4806 86.3396 42.606C86.3101 42.6281 86.2732 42.6503 86.2437 42.6724C86.1181 42.77 85.9876 42.8611 85.8527 42.9454C85.8084 42.9675 85.7715 42.997 85.7273 43.0192C85.5945 43.1003 85.4617 43.1741 85.3289 43.2405C85.2846 43.2626 85.2477 43.2847 85.2035 43.2995C85.0633 43.3659 84.9157 43.4323 84.7608 43.4913C84.7313 43.5061 84.6944 43.5208 84.6575 43.5282C84.4878 43.5946 84.3182 43.6536 84.1411 43.7053C84.1263 43.7126 84.1116 43.7126 84.0968 43.72C83.3 43.9561 82.4442 44.0594 81.5737 44.0594C78.9473 44.0594 76.2249 43.0856 74.6609 41.6912C74.5316 41.5736 74.3635 41.5079 74.1887 41.5067C74.1518 41.5067 74.1149 41.5215 74.0854 41.5289C74.0559 41.5363 74.019 41.5363 73.9895 41.551C73.9453 41.5658 73.901 41.5805 73.8567 41.6027C73.7829 41.6395 73.7239 41.6838 73.6649 41.7355C73.6501 41.7502 73.6428 41.765 73.628 41.7797C73.5764 41.8387 73.5321 41.9125 73.4952 41.9863C73.4878 42.001 73.4878 42.0084 73.4805 42.0232C73.4436 42.1191 73.4214 42.2297 73.4362 42.3478C73.6575 44.5758 75.0593 47.3646 78.3939 49.4598C81.5663 51.4591 88.243 51.4813 92.9942 48.2277L93.127 48.1392C93.2672 48.0359 93.4147 47.9326 93.5549 47.8293C93.6139 47.7851 93.6803 47.7334 93.7394 47.6818C93.9459 47.5195 94.1451 47.3498 94.3369 47.1727L94.6247 46.9071C94.728 46.826 94.8165 46.7301 94.905 46.6416Z" fill="#0EA89C"/>
<path d="M87.9367 82.296C87.8375 82.2553 87.7333 82.228 87.6269 82.2148H80.7657C80.6624 82.2296 80.5591 82.2517 80.4559 82.296C79.8361 82.5468 79.4894 83.1961 79.7845 83.8748C80.0796 84.5609 81.4444 86.4865 84.1963 86.4865C86.9481 86.4865 88.313 84.5609 88.6081 83.8748C88.8958 83.1887 88.5565 82.5468 87.9367 82.296Z" fill="#DBA689"/>
<path d="M68.0522 82.971C70.6925 82.971 72.8329 80.7547 72.8329 78.0207C72.8329 75.2867 70.6925 73.0703 68.0522 73.0703C65.4119 73.0703 63.2715 75.2867 63.2715 78.0207C63.2715 80.7547 65.4119 82.971 68.0522 82.971Z" fill="#312D2D"/>
<path d="M100.306 82.971C102.946 82.971 105.087 80.7547 105.087 78.0207C105.087 75.2867 102.946 73.0703 100.306 73.0703C97.6658 73.0703 95.5254 75.2867 95.5254 78.0207C95.5254 80.7547 97.6658 82.971 100.306 82.971Z" fill="#312D2D"/>
<path d="M91.0677 92.5754C88.4118 94.1542 79.7062 94.1542 77.0577 92.5754C75.5305 91.6679 73.9738 93.0549 74.6083 94.4419C75.228 95.8068 79.9792 98.9644 84.0885 98.9644C88.1905 98.9644 92.8826 95.8068 93.5023 94.4419C94.1294 93.0549 92.5875 91.6679 91.0677 92.5754Z" fill="#444444"/>
</g>
<defs>
<filter id="filter0_i_12_57" x="0" y="0" width="166" height="130" filterUnits="userSpaceOnUse" color-interpolation-filters="sRGB">
<feFlood flood-opacity="0" result="BackgroundImageFix"/>
<feBlend mode="normal" in="SourceGraphic" in2="BackgroundImageFix" result="shape"/>
<feColorMatrix in="SourceAlpha" type="matrix" values="0 0 0 0 0 0 0 0 0 0 0 0 0 0 0 0 0 0 127 0" result="hardAlpha"/>
<feOffset dy="4"/>
<feGaussianBlur stdDeviation="2"/>
<feComposite in2="hardAlpha" operator="arithmetic" k2="-1" k3="1"/>
<feColorMatrix type="matrix" values="0 0 0 0 0 0 0 0 0 0 0 0 0 0 0 0 0 0 0.25 0"/>
<feBlend mode="normal" in2="shape" result="effect1_innerShadow_12_57"/>
</filter>
<linearGradient id="paint0_linear_12_57" x1="83.1588" y1="11.9894" x2="83.1588" y2="131.228" gradientUnits="userSpaceOnUse">
<stop stop-color="#AFC1DC"/>
<stop offset="1" stop-color="#E2E5ED"/>
</linearGradient>
</defs>
</svg>
